# Blender v2.70 (sub 0) OBJ File: 'barrel.blend'
# www.blender.org
mtllib barrel.mtl
v -0.143328 0.135000 0.346025
v -0.264836 0.135000 0.264836
v -0.346025 0.135000 0.143328
v -0.374535 0.135000 -0.000000
v -0.346025 0.135000 -0.143329
v -0.264836 0.135000 -0.264837
v -0.143328 0.135000 -0.346026
v -0.130969 0.315000 0.316188
v -0.242000 0.315000 0.242000
v -0.316188 0.315000 0.130969
v -0.342239 0.315000 -0.000000
v -0.316188 0.315000 -0.130969
v -0.242000 0.315000 -0.242000
v -0.130969 0.315000 -0.316188
v -0.114805 0.450000 0.277164
v -0.212132 0.450000 0.212132
v -0.277164 0.450000 0.114805
v -0.300000 0.450000 -0.000000
v -0.277164 0.450000 -0.114805
v -0.212132 0.450000 -0.212132
v -0.114805 0.450000 -0.277164
v -0.102698 0.450000 0.247935
v -0.189761 0.450000 0.189761
v -0.247935 0.450000 0.102698
v -0.268363 0.450000 -0.000000
v -0.247935 0.450000 -0.102698
v -0.189761 0.450000 -0.189761
v -0.102698 0.450000 -0.247935
v -0.102698 0.416612 0.247935
v -0.189761 0.416612 0.189761
v -0.247935 0.416612 0.102698
v -0.268363 0.416612 -0.000000
v -0.247935 0.416612 -0.102698
v -0.189761 0.416612 -0.189761
v -0.102698 0.416612 -0.247935
v -0.143328 -0.135000 0.346025
v -0.264836 -0.135000 0.264836
v -0.346025 -0.135000 0.143328
v -0.374535 -0.135000 -0.000000
v -0.346025 -0.135000 -0.143329
v -0.264836 -0.135000 -0.264837
v -0.143328 -0.135000 -0.346026
v -0.130969 -0.315000 0.316188
v -0.242000 -0.315000 0.242000
v -0.316188 -0.315000 0.130969
v -0.342239 -0.315000 -0.000000
v -0.316188 -0.315000 -0.130969
v -0.242000 -0.315000 -0.242000
v -0.130969 -0.315000 -0.316188
v -0.114805 -0.450000 0.277164
v -0.212132 -0.450000 0.212132
v -0.277164 -0.450000 0.114805
v -0.300000 -0.450000 -0.000000
v -0.277164 -0.450000 -0.114805
v -0.212132 -0.450000 -0.212132
v -0.114805 -0.450000 -0.277164
v -0.102698 -0.450000 0.247935
v -0.189761 -0.450000 0.189761
v -0.247935 -0.450000 0.102698
v -0.268363 -0.450000 -0.000000
v -0.247935 -0.450000 -0.102698
v -0.189761 -0.450000 -0.189761
v -0.102698 -0.450000 -0.247935
v -0.102698 -0.416612 0.247935
v -0.189761 -0.416612 0.189761
v -0.247935 -0.416612 0.102698
v -0.268363 -0.416612 -0.000000
v -0.247935 -0.416612 -0.102698
v -0.189761 -0.416612 -0.189761
v -0.102698 -0.416612 -0.247935
v -0.145816 -0.000000 0.352030
v -0.269432 -0.000000 0.269432
v -0.352030 -0.000000 0.145816
v -0.381035 -0.000000 -0.000000
v -0.352030 -0.000000 -0.145816
v -0.269432 -0.000000 -0.269432
v -0.145815 -0.000000 -0.352030
v 0.143328 0.135000 0.346025
v 0.264836 0.135000 0.264836
v 0.346025 0.135000 0.143328
v 0.374535 0.135000 -0.000000
v 0.346025 0.135000 -0.143329
v 0.264836 0.135000 -0.264837
v 0.143328 0.135000 -0.346026
v 0.130969 0.315000 0.316188
v 0.242000 0.315000 0.242000
v 0.316188 0.315000 0.130969
v 0.342239 0.315000 -0.000000
v 0.316188 0.315000 -0.130969
v 0.242000 0.315000 -0.242000
v 0.130969 0.315000 -0.316188
v 0.114805 0.450000 0.277164
v 0.212132 0.450000 0.212132
v 0.277164 0.450000 0.114805
v 0.300000 0.450000 -0.000000
v 0.277164 0.450000 -0.114805
v 0.212132 0.450000 -0.212132
v 0.114805 0.450000 -0.277164
v 0.102698 0.450000 0.247935
v 0.189761 0.450000 0.189761
v 0.247935 0.450000 0.102698
v 0.268363 0.450000 -0.000000
v 0.247935 0.450000 -0.102698
v 0.189761 0.450000 -0.189761
v 0.102698 0.450000 -0.247935
v 0.102698 0.416612 0.247935
v 0.189761 0.416612 0.189761
v 0.247935 0.416612 0.102698
v 0.268363 0.416612 -0.000000
v 0.247935 0.416612 -0.102698
v 0.189761 0.416612 -0.189761
v 0.102698 0.416612 -0.247935
v 0.000000 0.135000 -0.374535
v 0.000000 0.135000 0.374535
v 0.000000 0.315000 -0.342239
v 0.000000 0.315000 0.342239
v 0.000000 0.450000 -0.300000
v 0.000000 0.450000 0.300000
v 0.000000 0.450000 -0.268363
v 0.000000 0.450000 0.268363
v 0.000000 0.416612 -0.268363
v 0.000000 0.416612 0.268363
v 0.000000 0.416612 -0.000000
v 0.143328 -0.135000 0.346025
v 0.264836 -0.135000 0.264836
v 0.346025 -0.135000 0.143328
v 0.374535 -0.135000 -0.000000
v 0.346025 -0.135000 -0.143329
v 0.264836 -0.135000 -0.264837
v 0.143328 -0.135000 -0.346026
v 0.130969 -0.315000 0.316188
v 0.242000 -0.315000 0.242000
v 0.316188 -0.315000 0.130969
v 0.342239 -0.315000 -0.000000
v 0.316188 -0.315000 -0.130969
v 0.242000 -0.315000 -0.242000
v 0.130969 -0.315000 -0.316188
v 0.114805 -0.450000 0.277164
v 0.212132 -0.450000 0.212132
v 0.277164 -0.450000 0.114805
v 0.300000 -0.450000 -0.000000
v 0.277164 -0.450000 -0.114805
v 0.212132 -0.450000 -0.212132
v 0.114805 -0.450000 -0.277164
v 0.102698 -0.450000 0.247935
v 0.189761 -0.450000 0.189761
v 0.247935 -0.450000 0.102698
v 0.268363 -0.450000 -0.000000
v 0.247935 -0.450000 -0.102698
v 0.189761 -0.450000 -0.189761
v 0.102698 -0.450000 -0.247935
v 0.102698 -0.416612 0.247935
v 0.189761 -0.416612 0.189761
v 0.247935 -0.416612 0.102698
v 0.268363 -0.416612 -0.000000
v 0.247935 -0.416612 -0.102698
v 0.189761 -0.416612 -0.189761
v 0.102698 -0.416612 -0.247935
v 0.145816 -0.000000 0.352030
v 0.269432 -0.000000 0.269432
v 0.352030 -0.000000 0.145816
v 0.381035 -0.000000 -0.000000
v 0.352030 -0.000000 -0.145816
v 0.269432 -0.000000 -0.269432
v 0.145816 -0.000000 -0.352030
v 0.000000 -0.135000 -0.374535
v 0.000000 -0.135000 0.374535
v 0.000000 -0.315000 -0.342239
v 0.000000 -0.315000 0.342239
v 0.000000 -0.450000 -0.300000
v 0.000000 -0.450000 0.300000
v 0.000000 -0.450000 -0.268363
v 0.000000 -0.450000 0.268363
v 0.000000 -0.416612 -0.268363
v 0.000000 -0.416612 0.268363
v 0.000000 -0.416612 -0.000000
v 0.000000 -0.000000 -0.381035
v 0.000000 -0.000000 0.381035
vt 0.017936 0.689505
vt 0.040310 0.577024
vt 0.068947 0.588885
vt 0.048933 0.689505
vt 0.104026 0.481666
vt 0.199383 0.417951
vt 0.211245 0.446588
vt 0.125944 0.503584
vt 0.199383 0.961059
vt 0.104026 0.897344
vt 0.125944 0.875426
vt 0.211245 0.932422
vt 0.040310 0.801986
vt 0.068947 0.790125
vt 0.311864 0.395577
vt 0.311864 0.426573
vt 0.311864 0.983433
vt 0.311864 0.952437
vt 0.905518 0.500000
vt 0.986654 0.500000
vt 0.986654 0.646424
vt 0.905518 0.646424
vt 0.824382 0.646424
vt 0.905518 0.841657
vt 0.824382 0.841657
vt 0.337565 0.500000
vt 0.418701 0.500000
vt 0.418701 0.646424
vt 0.337565 0.646424
vt 0.499837 0.500000
vt 0.580973 0.500000
vt 0.580973 0.646424
vt 0.499837 0.646424
vt 0.662109 0.500000
vt 0.743246 0.500000
vt 0.743246 0.646424
vt 0.662109 0.646424
vt 0.824382 0.500000
vt 0.743246 0.841657
vt 0.824382 0.988081
vt 0.743246 0.988081
vt 0.499837 0.841657
vt 0.418701 0.841657
vt 0.662109 0.841657
vt 0.580973 0.841657
vt 0.986654 0.841657
vt 0.337565 0.841657
vt 0.986654 0.988081
vt 0.905518 0.988081
vt 0.418701 0.988081
vt 0.337565 0.988081
vt 0.580973 0.988081
vt 0.499837 0.988081
vt 0.662109 0.988081
vt 0.499837 0.951868
vt 0.418701 0.951868
vt 0.662109 0.951868
vt 0.580973 0.951868
vt 0.824382 0.951868
vt 0.743246 0.951868
vt 0.986654 0.951868
vt 0.905518 0.951868
vt 0.337565 0.951868
vt 0.311864 0.689505
vt 0.905518 0.353576
vt 0.986654 0.353576
vt 0.824382 0.353576
vt 0.824382 0.158343
vt 0.905518 0.158343
vt 0.337565 0.353576
vt 0.418701 0.353576
vt 0.499837 0.353576
vt 0.580973 0.353576
vt 0.662109 0.353576
vt 0.743246 0.353576
vt 0.743246 0.158343
vt 0.743246 0.011919
vt 0.824382 0.011919
vt 0.418701 0.158343
vt 0.499837 0.158343
vt 0.580973 0.158343
vt 0.662109 0.158343
vt 0.986654 0.158343
vt 0.337565 0.158343
vt 0.905518 0.011919
vt 0.986654 0.011919
vt 0.337565 0.011919
vt 0.418701 0.011919
vt 0.499837 0.011919
vt 0.580973 0.011919
vt 0.662109 0.011919
vt 0.418701 0.048132
vt 0.499837 0.048132
vt 0.580973 0.048132
vt 0.662109 0.048132
vt 0.743246 0.048132
vt 0.824382 0.048132
vt 0.905518 0.048132
vt 0.986654 0.048132
vt 0.337565 0.048132
vn 0.000000 1.000000 0.000000
vn 0.000000 1.000000 0.000001
vn 0.000000 -1.000000 0.000000
vn 0.000000 1.000000 -0.000001
vn 0.000000 -1.000000 -0.000001
vn 0.000000 -1.000000 0.000001
vn -0.382672 0.000000 0.923856
vn 0.000000 0.000000 1.000000
vn 0.000000 0.111667 0.993713
vn -0.380261 0.111667 0.918088
vn -0.702658 0.111667 0.702658
vn -0.371838 0.236274 0.897702
vn -0.687063 0.236274 0.687063
vn 0.000000 0.000000 -1.000000
vn -0.382672 0.000000 -0.923856
vn -0.380261 0.111667 -0.918088
vn 0.000000 0.111667 -0.993713
vn -0.707083 0.000000 -0.707083
vn -0.923856 0.000000 -0.382672
vn -0.918088 0.111667 -0.380261
vn -0.702658 0.111667 -0.702658
vn -1.000000 0.000000 0.000000
vn -0.923856 0.000000 0.382672
vn -0.918088 0.111667 0.380261
vn -0.993713 0.111667 0.000000
vn -0.707083 0.000000 0.707083
vn -0.897702 0.236274 0.371838
vn -0.674846 0.298607 0.674846
vn -0.881728 0.298607 0.365224
vn -0.687063 0.236274 -0.687063
vn -0.371838 0.236274 -0.897702
vn -0.971679 0.236274 0.000000
vn -0.897702 0.236274 -0.371838
vn 0.000000 0.236274 0.971679
vn 0.000000 0.236274 -0.971679
vn 0.000000 0.298607 0.954376
vn -0.365224 0.298607 0.881729
vn -0.365224 0.298607 -0.881729
vn 0.000000 0.298607 -0.954376
vn -0.881728 0.298607 -0.365224
vn -0.674846 0.298607 -0.674846
vn -0.954376 0.298608 -0.000000
vn 0.382684 0.000000 0.923880
vn 0.707107 0.000000 0.707107
vn 0.527635 0.665700 0.527635
vn 0.285531 0.665700 0.689383
vn 0.923879 0.000000 0.382684
vn 1.000000 0.000000 0.000000
vn 0.746178 0.665700 0.000000
vn 0.689383 0.665700 0.285531
vn 0.923879 0.000000 -0.382684
vn 0.707107 0.000000 -0.707107
vn 0.527635 0.665700 -0.527635
vn 0.689383 0.665700 -0.285531
vn 0.382683 0.000000 -0.923880
vn 0.000000 0.665700 -0.746178
vn 0.285531 0.665700 -0.689383
vn 0.000000 0.665700 0.746178
vn -0.380261 -0.111667 0.918088
vn 0.000000 -0.111667 0.993713
vn -0.702658 -0.111667 0.702658
vn -0.687063 -0.236274 0.687063
vn -0.371838 -0.236274 0.897702
vn 0.000000 -0.111667 -0.993713
vn -0.380261 -0.111667 -0.918088
vn -0.702658 -0.111667 -0.702658
vn -0.918088 -0.111667 -0.380261
vn -0.993713 -0.111667 0.000000
vn -0.918088 -0.111667 0.380261
vn -0.897702 -0.236274 0.371838
vn -0.881728 -0.298608 0.365224
vn -0.674846 -0.298607 0.674846
vn -0.371838 -0.236274 -0.897702
vn -0.687063 -0.236274 -0.687063
vn -0.897702 -0.236274 -0.371838
vn -0.971679 -0.236274 0.000000
vn 0.000000 -0.236274 0.971679
vn 0.000000 -0.236274 -0.971679
vn -0.365224 -0.298608 0.881729
vn 0.000000 -0.298608 0.954376
vn 0.000000 -0.298607 -0.954376
vn -0.365224 -0.298607 -0.881729
vn -0.674846 -0.298607 -0.674846
vn -0.881728 -0.298608 -0.365224
vn -0.954376 -0.298608 -0.000000
vn 0.382683 0.000000 0.923880
vn 0.285531 -0.665700 0.689383
vn 0.527635 -0.665700 0.527635
vn 0.689383 -0.665700 0.285531
vn 0.746178 -0.665700 0.000000
vn 0.689383 -0.665700 -0.285531
vn 0.527635 -0.665700 -0.527635
vn 0.707106 0.000000 -0.707107
vn 0.285531 -0.665700 -0.689383
vn 0.000000 -0.665700 -0.746178
vn 0.000000 -0.665700 0.746178
vn 0.382672 0.000000 0.923856
vn 0.380261 0.111667 0.918088
vn 0.702658 0.111667 0.702658
vn 0.687063 0.236274 0.687063
vn 0.371838 0.236274 0.897702
vn 0.380261 0.111667 -0.918088
vn 0.382672 0.000000 -0.923856
vn 0.707083 0.000000 -0.707083
vn 0.702658 0.111667 -0.702658
vn 0.918088 0.111667 -0.380261
vn 0.923856 0.000000 -0.382672
vn 0.999969 0.000000 0.000000
vn 0.993713 0.111667 0.000000
vn 0.918088 0.111667 0.380261
vn 0.923856 0.000000 0.382672
vn 0.707083 0.000000 0.707083
vn 0.897702 0.236274 0.371838
vn 0.881728 0.298608 0.365224
vn 0.674845 0.298608 0.674846
vn 0.371838 0.236274 -0.897702
vn 0.687063 0.236274 -0.687063
vn 0.897702 0.236274 -0.371838
vn 0.971679 0.236274 0.000000
vn 0.365223 0.298607 0.881729
vn 0.365224 0.298607 -0.881729
vn 0.674846 0.298607 -0.674846
vn 0.881728 0.298607 -0.365224
vn 0.954376 0.298607 0.000000
vn -0.382683 0.000000 0.923880
vn -0.285531 0.665700 0.689383
vn -0.527635 0.665700 0.527635
vn -0.707107 0.000000 0.707107
vn -0.923879 0.000000 0.382684
vn -0.689383 0.665700 0.285531
vn -0.746178 0.665700 0.000000
vn -0.923879 0.000000 -0.382684
vn -0.689383 0.665700 -0.285531
vn -0.527635 0.665700 -0.527635
vn -0.707107 0.000000 -0.707107
vn -0.382683 0.000000 -0.923880
vn -0.285531 0.665700 -0.689383
vn 0.380261 -0.111667 0.918088
vn 0.702658 -0.111667 0.702658
vn 0.371838 -0.236274 0.897702
vn 0.687063 -0.236274 0.687063
vn 0.380261 -0.111667 -0.918088
vn 0.918088 -0.111667 -0.380261
vn 0.702658 -0.111667 -0.702658
vn 0.918088 -0.111667 0.380261
vn 0.993713 -0.111667 0.000000
vn 0.897702 -0.236274 0.371838
vn 0.674846 -0.298608 0.674846
vn 0.881728 -0.298608 0.365224
vn 0.687063 -0.236274 -0.687063
vn 0.371838 -0.236274 -0.897702
vn 0.971679 -0.236274 0.000000
vn 0.897702 -0.236274 -0.371838
vn 0.365223 -0.298608 0.881729
vn 0.365224 -0.298608 -0.881729
vn 0.881728 -0.298607 -0.365224
vn 0.674846 -0.298608 -0.674846
vn 0.954376 -0.298607 0.000000
vn -0.527635 -0.665700 0.527635
vn -0.285531 -0.665700 0.689383
vn -0.923880 0.000000 0.382683
vn -0.746178 -0.665700 0.000000
vn -0.689383 -0.665700 0.285531
vn -0.923880 0.000000 -0.382684
vn -0.707106 0.000000 -0.707107
vn -0.527635 -0.665700 -0.527635
vn -0.689383 -0.665700 -0.285531
vn -0.285531 -0.665700 -0.689383
usemtl barrel
s off
f 18/1/1 17/2/1 24/3/1 25/4/1
f 16/5/1 15/6/1 22/7/1 23/8/1
f 21/9/2 20/10/2 27/11/2 28/12/2
f 19/13/2 18/1/2 25/4/2 26/14/2
f 17/2/1 16/5/1 23/8/1 24/3/1
f 15/6/1 118/15/1 120/16/1 22/7/1
f 117/17/1 21/9/1 28/12/1 119/18/1
f 20/10/1 19/13/1 26/14/1 27/11/1
f 53/1/3 60/4/3 59/3/3 52/2/3
f 51/5/3 58/8/3 57/7/3 50/6/3
f 56/9/3 63/12/3 62/11/3 55/10/3
f 54/13/3 61/14/3 60/4/3 53/1/3
f 52/2/3 59/3/3 58/8/3 51/5/3
f 50/6/3 57/7/3 173/16/3 171/15/3
f 170/17/3 172/18/3 63/12/3 56/9/3
f 55/10/3 62/11/3 61/14/3 54/13/3
f 95/1/1 102/4/1 101/3/1 94/2/1
f 93/5/4 100/8/4 99/7/4 92/6/4
f 98/9/1 105/12/1 104/11/1 97/10/1
f 96/13/1 103/14/1 102/4/1 95/1/1
f 94/2/1 101/3/1 100/8/1 93/5/1
f 92/6/1 99/7/1 120/16/1 118/15/1
f 117/17/1 119/18/1 105/12/1 98/9/1
f 97/10/1 104/11/1 103/14/1 96/13/1
f 141/1/3 140/2/3 147/3/3 148/4/3
f 139/5/3 138/6/3 145/7/3 146/8/3
f 144/9/5 143/10/5 150/11/5 151/12/5
f 142/13/3 141/1/3 148/4/3 149/14/3
f 140/2/3 139/5/3 146/8/3 147/3/3
f 138/6/3 171/15/3 173/16/3 145/7/3
f 170/17/6 144/9/6 151/12/6 172/18/6
f 143/10/3 142/13/3 149/14/3 150/11/3
s 1
f 71/19/7 178/20/8 114/21/9 1/22/10
f 2/23/11 1/22/10 8/24/12 9/25/13
f 177/26/14 77/27/15 7/28/16 113/29/17
f 76/30/18 75/31/19 5/32/20 6/33/21
f 74/34/22 73/35/23 3/36/24 4/37/25
f 72/38/26 71/19/7 1/22/10 2/23/11
f 77/27/15 76/30/18 6/33/21 7/28/16
f 75/31/19 74/34/22 4/37/25 5/32/20
f 73/35/23 72/38/26 2/23/11 3/36/24
f 10/39/27 9/25/13 16/40/28 17/41/29
f 7/28/16 6/33/21 13/42/30 14/43/31
f 5/32/20 4/37/25 11/44/32 12/45/33
f 3/36/24 2/23/11 9/25/13 10/39/27
f 1/22/10 114/21/9 116/46/34 8/24/12
f 113/29/17 7/28/16 14/43/31 115/47/35
f 6/33/21 5/32/20 12/45/33 13/42/30
f 4/37/25 3/36/24 10/39/27 11/44/32
f 8/24/12 116/46/34 118/48/36 15/49/37
f 115/47/35 14/43/31 21/50/38 117/51/39
f 13/42/30 12/45/33 19/52/40 20/53/41
f 11/44/32 10/39/27 17/41/29 18/54/42
f 9/25/13 8/24/12 15/49/37 16/40/28
f 14/43/31 13/42/30 20/53/41 21/50/38
f 12/45/33 11/44/32 18/54/42 19/52/40
f 28/50/43 27/53/44 34/55/45 35/56/46
f 26/52/47 25/54/48 32/57/49 33/58/50
f 24/41/51 23/40/52 30/59/53 31/60/54
f 22/49/55 120/48/14 122/61/56 29/62/57
f 119/51/8 28/50/43 35/56/46 121/63/58
f 27/53/44 26/52/47 33/58/50 34/55/45
f 25/54/48 24/41/51 31/60/54 32/57/49
f 23/40/52 22/49/55 29/62/57 30/59/53
f 32/4/49 31/3/54 123/64/1
f 34/11/45 33/14/50 123/64/1
f 121/18/58 35/12/46 123/64/1
f 29/7/57 122/16/56 123/64/1
f 31/3/54 30/8/53 123/64/1
f 33/14/50 32/4/49 123/64/1
f 35/12/46 34/11/45 123/64/1
f 30/8/53 29/7/57 123/64/1
f 71/19/7 36/65/59 167/66/60 178/20/8
f 37/67/61 44/68/62 43/69/63 36/65/59
f 177/26/14 166/70/64 42/71/65 77/27/15
f 76/30/18 41/72/66 40/73/67 75/31/19
f 74/34/22 39/74/68 38/75/69 73/35/23
f 72/38/26 37/67/61 36/65/59 71/19/7
f 77/27/15 42/71/65 41/72/66 76/30/18
f 75/31/19 40/73/67 39/74/68 74/34/22
f 73/35/23 38/75/69 37/67/61 72/38/26
f 45/76/70 52/77/71 51/78/72 44/68/62
f 42/71/65 49/79/73 48/80/74 41/72/66
f 40/73/67 47/81/75 46/82/76 39/74/68
f 38/75/69 45/76/70 44/68/62 37/67/61
f 36/65/59 43/69/63 169/83/77 167/66/60
f 166/70/64 168/84/78 49/79/73 42/71/65
f 41/72/66 48/80/74 47/81/75 40/73/67
f 39/74/68 46/82/76 45/76/70 38/75/69
f 43/69/63 50/85/79 171/86/80 169/83/77
f 168/84/78 170/87/81 56/88/82 49/79/73
f 48/80/74 55/89/83 54/90/84 47/81/75
f 46/82/76 53/91/85 52/77/71 45/76/70
f 44/68/62 51/78/72 50/85/79 43/69/63
f 49/79/73 56/88/82 55/89/83 48/80/74
f 47/81/75 54/90/84 53/91/85 46/82/76
f 63/88/86 70/92/87 69/93/88 62/89/44
f 61/90/47 68/94/89 67/95/90 60/91/48
f 59/77/51 66/96/91 65/97/92 58/78/93
f 57/85/55 64/98/94 175/99/95 173/86/14
f 172/87/8 174/100/96 70/92/87 63/88/86
f 62/89/44 69/93/88 68/94/89 61/90/47
f 60/91/48 67/95/90 66/96/91 59/77/51
f 58/78/93 65/97/92 64/98/94 57/85/55
f 67/4/90 176/64/3 66/3/91
f 69/11/88 176/64/3 68/14/89
f 174/18/96 176/64/3 70/12/87
f 64/7/94 176/64/3 175/16/95
f 66/3/91 176/64/3 65/8/92
f 68/14/89 176/64/3 67/4/90
f 70/12/87 176/64/3 69/11/88
f 65/8/92 176/64/3 64/7/94
f 159/19/97 78/22/98 114/21/9 178/20/8
f 79/23/99 86/25/100 85/24/101 78/22/98
f 177/26/14 113/29/17 84/28/102 165/27/103
f 164/30/104 83/33/105 82/32/106 163/31/107
f 162/34/108 81/37/109 80/36/110 161/35/111
f 160/38/112 79/23/99 78/22/98 159/19/97
f 165/27/103 84/28/102 83/33/105 164/30/104
f 163/31/107 82/32/106 81/37/109 162/34/108
f 161/35/111 80/36/110 79/23/99 160/38/112
f 87/39/113 94/41/114 93/40/115 86/25/100
f 84/28/102 91/43/116 90/42/117 83/33/105
f 82/32/106 89/45/118 88/44/119 81/37/109
f 80/36/110 87/39/113 86/25/100 79/23/99
f 78/22/98 85/24/101 116/46/34 114/21/9
f 113/29/17 115/47/35 91/43/116 84/28/102
f 83/33/105 90/42/117 89/45/118 82/32/106
f 81/37/109 88/44/119 87/39/113 80/36/110
f 85/24/101 92/49/120 118/48/36 116/46/34
f 115/47/35 117/51/39 98/50/121 91/43/116
f 90/42/117 97/53/122 96/52/123 89/45/118
f 88/44/119 95/54/124 94/41/114 87/39/113
f 86/25/100 93/40/115 92/49/120 85/24/101
f 91/43/116 98/50/121 97/53/122 90/42/117
f 89/45/118 96/52/123 95/54/124 88/44/119
f 105/50/125 112/56/126 111/55/127 104/53/128
f 103/52/129 110/58/130 109/57/131 102/54/22
f 101/41/132 108/60/133 107/59/134 100/40/135
f 99/49/136 106/62/137 122/61/56 120/48/14
f 119/51/8 121/63/58 112/56/126 105/50/125
f 104/53/128 111/55/127 110/58/130 103/52/129
f 102/54/22 109/57/131 108/60/133 101/41/132
f 100/40/135 107/59/134 106/62/137 99/49/136
f 109/4/131 123/64/1 108/3/133
f 111/11/127 123/64/1 110/14/130
f 121/18/58 123/64/1 112/12/126
f 106/7/137 123/64/1 122/16/56
f 108/3/133 123/64/1 107/8/134
f 110/14/130 123/64/1 109/4/131
f 112/12/126 123/64/1 111/11/127
f 107/8/134 123/64/1 106/7/137
f 159/19/97 178/20/8 167/66/60 124/65/138
f 125/67/139 124/65/138 131/69/140 132/68/141
f 177/26/14 165/27/103 130/71/142 166/70/64
f 164/30/104 163/31/107 128/73/143 129/72/144
f 162/34/108 161/35/111 126/75/145 127/74/146
f 160/38/112 159/19/97 124/65/138 125/67/139
f 165/27/103 164/30/104 129/72/144 130/71/142
f 163/31/107 162/34/108 127/74/146 128/73/143
f 161/35/111 160/38/112 125/67/139 126/75/145
f 133/76/147 132/68/141 139/78/148 140/77/149
f 130/71/142 129/72/144 136/80/150 137/79/151
f 128/73/143 127/74/146 134/82/152 135/81/153
f 126/75/145 125/67/139 132/68/141 133/76/147
f 124/65/138 167/66/60 169/83/77 131/69/140
f 166/70/64 130/71/142 137/79/151 168/84/78
f 129/72/144 128/73/143 135/81/153 136/80/150
f 127/74/146 126/75/145 133/76/147 134/82/152
f 131/69/140 169/83/77 171/86/80 138/85/154
f 168/84/78 137/79/151 144/88/155 170/87/81
f 136/80/150 135/81/153 142/90/156 143/89/157
f 134/82/152 133/76/147 140/77/149 141/91/158
f 132/68/141 131/69/140 138/85/154 139/78/148
f 137/79/151 136/80/150 143/89/157 144/88/155
f 135/81/153 134/82/152 141/91/158 142/90/156
f 151/88/125 150/89/128 157/93/159 158/92/160
f 149/90/161 148/91/22 155/95/162 156/94/163
f 147/77/164 146/78/165 153/97/166 154/96/167
f 145/85/136 173/86/14 175/99/95 152/98/168
f 172/87/8 151/88/125 158/92/160 174/100/96
f 150/89/128 149/90/161 156/94/163 157/93/159
f 148/91/22 147/77/164 154/96/167 155/95/162
f 146/78/165 145/85/136 152/98/168 153/97/166
f 155/4/162 154/3/167 176/64/3
f 157/11/159 156/14/163 176/64/3
f 174/18/96 158/12/160 176/64/3
f 152/7/168 175/16/95 176/64/3
f 154/3/167 153/8/166 176/64/3
f 156/14/163 155/4/162 176/64/3
f 158/12/160 157/11/159 176/64/3
f 153/8/166 152/7/168 176/64/3
