# Blender v2.70 (sub 0) OBJ File: 'sword.blend'
# www.blender.org
mtllib sword.mtl
v 0.010500 0.140522 0.023476
v 0.011550 0.122855 0.025823
v 0.000000 0.122855 0.050897
v 0.000000 0.140522 0.046270
v -0.010500 0.140522 0.023475
v -0.010500 0.140522 -0.023475
v -0.012600 0.565038 -0.035510
v -0.012600 0.565038 0.035510
v 0.010500 0.140522 -0.023475
v 0.012600 0.565038 0.035510
v 0.012600 0.565038 -0.035510
v -0.010500 0.716651 0.020605
v 0.000000 0.716651 0.046269
v 0.000000 0.565038 0.066628
v 0.000000 0.140522 -0.046270
v 0.000000 0.565038 -0.066628
v 0.000000 0.716651 -0.046270
v -0.010500 0.716651 -0.020605
v 0.010500 0.716651 0.020605
v 0.010500 0.716651 -0.020605
v 0.000000 0.122855 -0.050897
v 0.011550 0.122855 -0.025823
v -0.011550 0.122855 0.025823
v -0.010500 0.807619 0.000000
v 0.000000 0.837941 0.018508
v 0.010500 0.807619 0.000000
v 0.000000 0.837941 -0.018508
v 0.000000 0.898587 0.000000
v -0.011550 0.122855 -0.025823
v -0.021668 0.130356 0.043015
v -0.021668 0.130356 -0.043015
v 0.021668 0.130356 -0.043015
v 0.021668 0.130356 0.043015
v -0.014006 0.134776 -0.085543
v 0.014006 0.134776 -0.085543
v 0.014006 0.134777 0.085543
v -0.014006 0.134776 0.085543
v -0.006547 0.142801 -0.111255
v 0.006547 0.142801 -0.111255
v 0.006547 0.142801 0.111255
v -0.006547 0.142801 0.111255
v 0.014007 0.110710 0.085543
v 0.008227 0.098637 0.050154
v -0.008227 0.098637 0.050154
v -0.014006 0.110709 0.085543
v -0.019765 0.094217 0.027475
v -0.021668 0.106289 0.043015
v 0.021669 0.106289 0.043015
v 0.019765 0.094217 0.027475
v 0.014007 0.110709 -0.085543
v 0.008581 0.117484 -0.106807
v -0.008581 0.117484 -0.106807
v -0.014006 0.110709 -0.085543
v -0.008581 0.117484 0.106807
v 0.008581 0.117484 0.106807
v -0.004277 0.130665 0.118380
v 0.004277 0.130665 0.118380
v 0.004277 0.130665 -0.118380
v -0.004277 0.130665 -0.118380
v 0.021669 0.106289 -0.043015
v -0.021668 0.106289 -0.043015
v 0.000000 0.150911 -0.123778
v 0.000000 0.150911 0.123778
v -0.015755 0.063927 -0.010630
v -0.015755 -0.125073 -0.010630
v 0.000000 -0.125073 -0.019394
v 0.000000 0.063927 -0.019394
v 0.000000 0.084927 0.029038
v -0.016830 0.084927 0.015917
v 0.000000 0.063927 0.019394
v 0.000000 -0.125073 0.019394
v -0.015755 -0.125073 0.010630
v -0.015755 0.063927 0.010630
v -0.019765 0.094217 -0.027475
v -0.008227 0.098637 -0.050154
v 0.008227 0.098637 -0.050154
v 0.019765 0.094217 -0.027475
v -0.016830 0.084927 -0.015917
v 0.000000 0.084927 -0.029038
v 0.015755 -0.125073 -0.010630
v 0.015756 0.063927 -0.010630
v 0.016830 0.084927 0.015917
v 0.016830 0.084927 -0.015917
v 0.015756 0.063927 0.010630
v 0.015755 -0.125073 0.010630
v -0.015755 -0.125073 -0.010630
v -0.021800 -0.131980 -0.017931
v 0.000000 -0.131980 -0.032714
v 0.000000 -0.125073 -0.019394
v 0.000000 -0.125073 0.019394
v 0.000000 -0.131980 0.032714
v -0.021800 -0.131980 0.017931
v -0.015755 -0.125073 0.010630
v 0.021801 -0.131980 -0.017931
v 0.015755 -0.125073 -0.010630
v -0.023980 -0.141061 -0.019724
v 0.000000 -0.141061 -0.035985
v 0.000000 -0.141061 0.035985
v -0.023980 -0.141061 0.019725
v 0.023981 -0.141061 -0.019724
v 0.015755 -0.125073 0.010630
v 0.021801 -0.131980 0.017931
v -0.021582 -0.150924 -0.017752
v 0.000000 -0.150924 -0.032387
v 0.000000 -0.150924 0.032387
v -0.021582 -0.150924 0.017752
v 0.021583 -0.150924 -0.017752
v 0.023981 -0.141061 0.019725
v -0.010791 -0.156883 -0.008876
v 0.000000 -0.156883 -0.016193
v 0.000000 -0.156883 0.016193
v -0.010791 -0.156883 0.008876
v 0.010791 -0.156883 -0.008876
v 0.021583 -0.150924 0.017752
v 0.010791 -0.156883 0.008876
v 0.000000 -0.158158 -0.000000
vt 0.954705 0.842773
vt 0.954705 0.898967
vt 0.976483 0.910373
vt 0.976483 0.848560
vt 0.954705 0.842772
vt 0.431428 0.872442
vt 0.431428 0.697356
vt 0.954705 0.727025
vt 0.431428 0.949156
vt 0.244543 0.898967
vt 0.244543 0.835695
vt 0.431428 0.620641
vt 0.954705 0.670831
vt 0.244543 0.734102
vt 0.244543 0.670831
vt 0.244543 0.835696
vt 0.976483 0.721237
vt 0.976483 0.659424
vt 0.095036 0.830526
vt 0.132412 0.784899
vt 0.095036 0.739272
vt 0.020282 0.784899
vt 0.360332 0.427689
vt 0.360333 0.596529
vt 0.192747 0.596529
vt 0.192747 0.427688
vt 0.109457 0.566677
vt 0.109457 0.457539
vt 0.443623 0.457540
vt 0.443623 0.566678
vt 0.056987 0.537615
vt 0.056987 0.486601
vt 0.496092 0.486602
vt 0.496093 0.537616
vt 0.137098 0.265718
vt 0.113435 0.166218
vt 0.184722 0.123574
vt 0.198622 0.182019
vt 0.449226 0.332283
vt 0.363697 0.314501
vt 0.332444 0.265945
vt 0.378055 0.283726
vt 0.363697 0.314502
vt 0.378055 0.283727
vt 0.113518 0.166143
vt 0.137182 0.265643
vt 0.092964 0.284076
vt 0.078467 0.223118
vt 0.092880 0.284151
vt 0.078384 0.223193
vt 0.058092 0.298499
vt 0.050867 0.268116
vt 0.058176 0.298423
vt 0.050950 0.268041
vt 0.190682 0.411305
vt 0.363697 0.411305
vt 0.190682 0.314501
vt 0.500936 0.461362
vt 0.449226 0.429086
vt 0.491990 0.359531
vt 0.105153 0.429086
vt 0.053443 0.461362
vt 0.062389 0.359530
vt 0.105153 0.332283
vt 0.449226 0.429087
vt 0.028258 0.493981
vt 0.039114 0.412549
vt 0.526121 0.493982
vt 0.515265 0.412550
vt 0.628783 0.189110
vt 0.633038 0.124528
vt 0.981821 0.133419
vt 0.981397 0.199960
vt 0.309200 0.228579
vt 0.335589 0.228579
vt 0.624212 0.339825
vt 0.626145 0.269214
vt 0.981044 0.276491
vt 0.980899 0.341603
vt 0.176324 0.283726
vt 0.221934 0.265945
vt 0.184806 0.123499
vt 0.198705 0.181943
vt 0.592346 0.167161
vt 0.596722 0.095438
vt 0.581379 0.338996
vt 0.587502 0.272249
vt 0.633912 0.557641
vt 0.629819 0.491515
vt 0.981328 0.480815
vt 0.981821 0.545608
vt 0.218790 0.228579
vt 0.245179 0.228579
vt 0.236385 0.110262
vt 0.596196 0.587522
vt 0.591798 0.513112
vt 0.236468 0.110186
vt 0.587067 0.405457
vt 0.625475 0.410750
vt 0.980971 0.404349
vt 0.525156 0.512109
vt 0.027924 0.512107
vt 0.017351 0.318632
vt 0.515265 0.412549
vt 0.017268 0.318706
vt 0.378984 0.196235
vt 0.344208 0.209692
vt 0.328663 0.154355
vt 0.373786 0.161149
vt 0.450105 0.220618
vt 0.414959 0.198161
vt 0.422449 0.169146
vt 0.451386 0.170099
vt 0.557443 0.219189
vt 0.523908 0.198888
vt 0.530423 0.166867
vt 0.575834 0.166680
vt 0.328007 0.115130
vt 0.374669 0.133805
vt 0.423568 0.146036
vt 0.451803 0.149432
vt 0.530001 0.139781
vt 0.578261 0.127024
vt 0.487227 0.207902
vt 0.481148 0.173979
vt 0.337106 0.076092
vt 0.378446 0.105920
vt 0.424231 0.120569
vt 0.452240 0.127590
vt 0.526399 0.110743
vt 0.570764 0.085388
vt 0.480210 0.149914
vt 0.368884 0.035256
vt 0.390046 0.066098
vt 0.423954 0.070031
vt 0.454034 0.065476
vt 0.515597 0.063008
vt 0.540163 0.035256
vt 0.479602 0.124782
vt 0.483075 0.079823
vt 0.497322 0.309715
vt 0.485883 0.275942
vt 0.511182 0.275942
vt 0.536481 0.275942
vt 0.525043 0.309715
vt 0.497322 0.242169
vt 0.525043 0.242169
vn 0.979522 0.036744 0.197913
vn 0.000000 0.120670 0.992676
vn -0.000003 0.253354 0.967374
vn 0.969575 0.087976 0.228441
vn -0.979522 0.036744 0.197882
vn -0.978942 0.011109 0.203742
vn -0.978942 0.011109 -0.203742
vn -0.979522 0.036744 -0.197882
vn 0.979522 0.036744 -0.197882
vn 0.978942 0.011109 -0.203742
vn 0.978942 0.011109 0.203742
vn 0.000000 0.040284 0.999176
vn 0.000000 0.172948 0.984924
vn -0.978912 0.040742 0.200079
vn 0.000000 0.040284 -0.999176
vn 0.000000 0.120701 -0.992676
vn -0.978912 0.040742 -0.200079
vn 0.000000 0.172948 -0.984924
vn 0.978912 0.040742 -0.200079
vn 0.978912 0.040742 0.200079
vn 0.969573 0.087982 -0.228444
vn 0.000000 0.253368 -0.967370
vn -0.969573 0.087982 0.228444
vn 0.000000 0.272805 0.962035
vn -0.995911 0.090030 0.000000
vn 0.000000 0.272805 -0.962035
vn 0.995911 0.090030 0.000000
vn 0.000000 1.000000 0.000000
vn -0.969573 0.087982 -0.228444
vn -0.735801 0.676260 0.034883
vn 0.735771 0.676290 0.034883
vn 0.735771 0.676290 -0.034883
vn -0.735801 0.676290 -0.034883
vn 0.732292 0.679800 -0.039674
vn -0.732322 0.679769 -0.039674
vn -0.732322 0.679769 0.039674
vn 0.732292 0.679800 0.039674
vn 0.742698 0.669515 0.008881
vn -0.742698 0.669515 0.008881
vn -0.742729 0.669515 -0.008850
vn 0.742698 0.669515 -0.008850
vn 0.684561 -0.638142 0.352306
vn -0.684500 -0.638173 0.352306
vn -0.299936 -0.875210 0.379467
vn 0.299936 -0.875210 0.379467
vn -0.916288 -0.362560 0.170049
vn -0.810083 -0.545488 0.214850
vn 0.916288 -0.362560 0.170049
vn 0.810053 -0.545518 0.214850
vn 0.684530 -0.638173 -0.352306
vn -0.684530 -0.638173 -0.352306
vn -0.590899 -0.598804 -0.540574
vn 0.590899 -0.598804 -0.540605
vn 0.590899 -0.598804 0.540574
vn -0.590899 -0.598804 0.540574
vn 0.532701 -0.303812 0.789850
vn -0.532701 -0.303812 0.789850
vn -0.532701 -0.303812 -0.789850
vn 0.532701 -0.303812 -0.789850
vn 0.916288 -0.362560 -0.170049
vn -0.916288 -0.362560 -0.170049
vn 0.000000 0.804346 -0.594104
vn 0.000000 0.804346 0.594104
vn -0.884091 -0.095614 -0.457381
vn 0.000000 -0.185400 -0.982635
vn -0.000007 -0.000001 -1.000000
vn -0.862009 0.000000 -0.506893
vn -0.862758 -0.393017 0.318033
vn 0.000000 -0.729179 0.684317
vn 0.000000 -0.185400 0.982635
vn -0.884091 -0.095614 0.457381
vn -0.862009 -0.000000 0.506893
vn -0.000007 -0.000001 1.000000
vn -0.299936 -0.875210 -0.379467
vn -0.810083 -0.545488 -0.214850
vn 0.810053 -0.545518 -0.214850
vn 0.299905 -0.875210 -0.379467
vn -0.862758 -0.393017 -0.318033
vn 0.000000 -0.729179 -0.684317
vn 0.884091 -0.095584 -0.457381
vn 0.862005 -0.000004 -0.506900
vn 0.862758 -0.393017 0.318033
vn 0.862758 -0.393017 -0.318033
vn 0.884091 -0.095584 0.457381
vn 0.862005 -0.000004 0.506900
vn -0.588284 0.779043 -0.216826
vn -0.000006 0.870315 -0.492495
vn 0.000000 0.588275 -0.808649
vn -0.739677 0.540513 -0.400830
vn -0.000006 0.870315 0.492495
vn -0.588284 0.779043 0.216826
vn -0.739677 0.540544 0.400830
vn 0.000000 0.588305 0.808618
vn 0.588234 0.779080 -0.216829
vn 0.739677 0.540544 -0.400830
vn 0.000000 -0.001801 -0.999969
vn -0.876034 -0.001617 -0.482223
vn -0.876003 -0.001617 0.482253
vn 0.000000 -0.001801 0.999969
vn 0.876003 -0.001617 -0.482223
vn 0.588234 0.779080 0.216829
vn 0.739677 0.540544 0.400830
vn 0.000000 -0.637226 -0.770653
vn -0.702292 -0.610370 -0.366314
vn -0.702292 -0.610401 0.366283
vn 0.000000 -0.637257 0.770623
vn 0.702292 -0.610370 -0.366314
vn 0.876003 -0.001617 0.482253
vn 0.000000 -0.965056 -0.261971
vn -0.273782 -0.954375 -0.118931
vn -0.273782 -0.954375 0.118931
vn 0.000000 -0.965056 0.261971
vn 0.273782 -0.954405 -0.118931
vn 0.702292 -0.610401 0.366283
vn 0.273782 -0.954405 0.118931
vn 0.000000 -1.000000 0.000000
usemtl sword
s 1
f 1/1/1 4/2/2 3/3/3 2/4/4
f 5/5/5 8/6/6 7/7/7 6/8/8
f 9/8/9 11/7/10 10/6/11 1/1/1
f 8/6/6 14/9/12 13/10/13 12/11/14
f 6/8/8 7/7/7 16/12/15 15/13/16
f 16/12/15 7/7/7 18/14/17 17/15/18
f 10/6/11 11/7/10 20/14/19 19/16/20
f 7/7/7 8/6/6 12/11/14 18/14/17
f 14/9/12 10/6/11 19/16/20 13/10/13
f 11/7/10 9/8/9 15/13/16 16/12/15
f 15/13/16 9/8/9 22/17/21 21/18/22
f 1/1/1 10/6/11 14/9/12 4/2/2
f 8/6/6 5/5/5 4/2/2 14/9/12
f 4/2/2 5/5/5 23/4/23 3/3/3
f 12/11/14 13/10/13 25/19/24 24/20/25
f 11/7/10 16/12/15 17/15/18 20/14/19
f 20/14/19 17/15/18 27/21/26 26/20/27
f 24/20/25 25/19/24 28/22/28
f 19/16/20 20/14/19 26/20/27
f 18/14/17 12/11/14 24/20/25
f 13/10/13 19/16/20 26/20/27 25/19/24
f 17/15/18 18/14/17 24/20/25 27/21/26
f 25/19/24 26/20/27 28/22/28
f 27/21/26 24/20/25 28/22/28
f 27/21/26 28/22/28 26/20/27
f 6/8/8 15/13/16 21/18/22 29/17/29
f 2/4/4 22/17/21 9/8/9 1/1/1
f 5/5/5 6/8/8 29/17/29 23/4/23
f 30/23/30 33/24/31 32/25/32 31/26/33
f 32/25/32 35/27/34 34/28/35 31/26/33
f 30/23/30 37/29/36 36/30/37 33/24/31
f 35/27/34 39/31/38 38/32/39 34/28/35
f 37/29/36 41/33/40 40/34/41 36/30/37
f 42/35/42 45/36/43 44/37/44 43/38/45
f 45/39/43 47/40/46 46/41/47 44/42/44
f 48/43/48 42/39/42 43/44/45 49/41/49
f 50/45/50 53/46/51 52/47/52 51/48/53
f 45/36/43 42/35/42 55/49/54 54/50/55
f 54/50/55 55/49/54 57/51/56 56/52/57
f 51/48/53 52/47/52 59/53/58 58/54/59
f 32/55/32 33/56/31 48/43/48 60/57/60
f 41/58/40 37/59/36 45/39/43 54/60/55
f 34/61/35 38/62/39 52/63/52 53/64/51
f 37/59/36 30/56/30 47/40/46 45/39/43
f 31/55/33 34/61/35 53/64/51 61/57/61
f 36/65/37 40/58/41 55/60/54 42/39/42
f 30/56/30 31/55/33 61/57/61 47/40/46
f 39/62/38 35/61/34 50/64/50 51/63/53
f 33/56/31 36/65/37 42/39/42 48/43/48
f 62/66/62 39/62/38 51/63/53 58/67/59
f 40/58/41 63/68/63 57/69/56 55/60/54
f 35/61/34 32/55/32 60/57/60 50/64/50
f 64/70/64 67/71/65 66/72/66 65/73/67
f 44/42/44 46/41/47 69/74/68 68/75/69
f 70/76/70 73/77/71 72/78/72 71/79/73
f 61/57/61 53/64/51 75/80/74 74/81/75
f 50/64/50 60/57/60 77/81/76 76/80/77
f 53/46/51 50/45/50 76/82/77 75/83/74
f 60/57/60 48/43/48 49/41/49 77/81/76
f 47/40/46 61/57/61 74/81/75 46/41/47
f 78/84/78 79/85/79 67/71/65 64/70/64
f 68/86/69 69/87/68 73/77/71 70/76/70
f 67/88/65 81/89/80 80/90/81 66/91/66
f 74/81/75 75/80/74 79/92/79 78/93/78
f 49/41/49 43/44/45 68/75/69 82/74/82
f 43/38/45 44/37/44 68/94/69
f 77/81/76 49/41/49 82/74/82 83/93/83
f 46/41/47 74/81/75 78/93/78 69/74/68
f 79/95/79 83/96/83 81/89/80 67/88/65
f 76/80/77 77/81/76 83/93/83 79/92/79
f 75/83/74 76/82/77 79/97/79
f 82/98/82 68/86/69 70/76/70 84/99/84
f 83/96/83 82/98/82 84/99/84 81/89/80
f 69/87/68 78/84/78 64/70/64 73/77/71
f 84/99/84 70/76/70 71/79/73 85/100/85
f 73/77/71 64/70/64 65/73/67 72/78/72
f 81/89/80 84/99/84 85/100/85 80/90/81
f 41/33/40 63/101/63 40/34/41
f 39/31/38 62/102/62 38/32/39
f 38/62/39 62/66/62 59/67/58 52/63/52
f 62/103/62 58/54/59 59/53/58
f 63/68/63 41/58/40 54/60/55 56/104/57
f 63/105/63 56/52/57 57/51/56
f 86/106/86 89/107/87 88/108/88 87/109/89
f 90/110/90 93/111/91 92/112/92 91/113/93
f 89/114/87 95/115/94 94/116/95 88/117/88
f 87/109/89 88/108/88 97/118/96 96/119/97
f 91/113/93 92/112/92 99/120/98 98/121/99
f 88/117/88 94/116/95 100/122/100 97/123/96
f 101/124/101 90/110/90 91/113/93 102/125/102
f 93/111/91 86/106/86 87/109/89 92/112/92
f 95/115/94 101/124/101 102/125/102 94/116/95
f 96/119/97 97/118/96 104/126/103 103/127/104
f 98/121/99 99/120/98 106/128/105 105/129/106
f 97/123/96 100/122/100 107/130/107 104/131/103
f 102/125/102 91/113/93 98/121/99 108/132/108
f 92/112/92 87/109/89 96/119/97 99/120/98
f 94/116/95 102/125/102 108/132/108 100/122/100
f 103/127/104 104/126/103 110/133/109 109/134/110
f 105/129/106 106/128/105 112/135/111 111/136/112
f 104/131/103 107/130/107 113/137/113 110/138/109
f 108/132/108 98/121/99 105/129/106 114/139/114
f 99/120/98 96/119/97 103/127/104 106/128/105
f 100/122/100 108/132/108 114/139/114 107/130/107
f 114/139/114 105/129/106 111/136/112 115/140/115
f 106/128/105 103/127/104 109/134/110 112/135/111
f 107/130/107 114/139/114 115/140/115 113/137/113
f 109/141/110 110/142/109 116/143/116
f 111/144/112 112/145/111 116/143/116
f 110/142/109 113/146/113 116/143/116
f 115/147/115 111/144/112 116/143/116
f 112/145/111 109/141/110 116/143/116
f 113/146/113 115/147/115 116/143/116
