# Blender v2.70 (sub 0) OBJ File: 'Miekka.blend'
# www.blender.org
mtllib sword.mtl
v -0.010500 0.140522 0.023475
v -0.010500 0.140522 -0.023475
v 0.010500 0.140522 -0.023475
v 0.010500 0.140522 0.023476
v -0.012600 0.565038 0.035510
v -0.012600 0.565038 -0.035510
v 0.012600 0.565038 -0.035510
v 0.012600 0.565038 0.035510
v 0.000000 0.140522 -0.046270
v 0.000000 0.565038 -0.066628
v -0.000000 0.140522 0.046270
v -0.000000 0.565038 0.066628
v -0.010500 0.716651 0.020605
v -0.010500 0.716651 -0.020605
v 0.010500 0.716651 -0.020605
v 0.010500 0.716651 0.020605
v 0.000000 0.716651 -0.046270
v -0.000000 0.716651 0.046269
v -0.010500 0.807619 -0.000000
v 0.010500 0.807619 -0.000000
v 0.000000 0.837941 -0.018508
v -0.000000 0.837941 0.018508
v 0.000000 0.898587 -0.000000
v -0.011550 0.122855 0.025823
v -0.011550 0.122855 -0.025823
v 0.011550 0.122855 -0.025823
v 0.011550 0.122855 0.025823
v 0.000000 0.122855 -0.050897
v -0.000000 0.122855 0.050897
v -0.021668 0.130356 0.043015
v -0.021668 0.130356 -0.043015
v 0.021668 0.130356 -0.043015
v 0.021668 0.130356 0.043015
v -0.014006 0.134776 -0.085543
v 0.014006 0.134776 -0.085543
v -0.014006 0.134776 0.085543
v 0.014006 0.134777 0.085543
v -0.006547 0.142801 -0.111255
v 0.006547 0.142801 -0.111255
v -0.006547 0.142801 0.111255
v 0.006547 0.142801 0.111255
v -0.000000 0.150911 0.123778
v -0.000000 0.150911 -0.123778
v -0.021668 0.106289 0.043015
v -0.021668 0.106289 -0.043015
v 0.021669 0.106289 -0.043015
v 0.021669 0.106289 0.043015
v -0.014006 0.110709 -0.085543
v 0.014007 0.110709 -0.085543
v -0.014006 0.110709 0.085543
v 0.014007 0.110710 0.085543
v -0.008581 0.117484 -0.106807
v 0.008581 0.117484 -0.106807
v -0.008581 0.117484 0.106807
v 0.008581 0.117484 0.106807
v -0.004277 0.130665 0.118380
v 0.004277 0.130665 0.118380
v -0.004277 0.130665 -0.118380
v 0.004277 0.130665 -0.118380
v -0.019765 0.094217 0.027475
v -0.019765 0.094217 -0.027475
v 0.019765 0.094217 -0.027475
v 0.019765 0.094217 0.027475
v -0.008227 0.098637 -0.050154
v 0.008227 0.098637 -0.050154
v -0.008227 0.098637 0.050154
v 0.008227 0.098637 0.050154
v -0.016830 0.084927 0.015917
v -0.016830 0.084927 -0.015917
v 0.016830 0.084927 -0.015917
v 0.016830 0.084927 0.015917
v 0.000000 0.084927 -0.029038
v -0.015755 0.063927 -0.010630
v 0.000000 0.084927 0.029038
v -0.015755 0.063927 0.010630
v 0.015756 0.063927 -0.010630
v 0.015756 0.063927 0.010630
v 0.000000 0.063927 -0.019394
v 0.000000 0.063927 0.019394
v -0.015755 -0.125073 -0.010630
v -0.015755 -0.125073 0.010630
v 0.015755 -0.125073 -0.010630
v 0.015755 -0.125073 0.010630
v 0.000000 -0.125073 -0.019394
v 0.000000 -0.125073 0.019394
v -0.015755 -0.125073 -0.010630
v -0.015755 -0.125073 0.010630
v 0.015755 -0.125073 -0.010630
v 0.015755 -0.125073 0.010630
v 0.000000 -0.125073 -0.019394
v 0.000000 -0.125073 0.019394
v -0.021800 -0.131980 -0.017931
v -0.021800 -0.131980 0.017931
v 0.021801 -0.131980 -0.017931
v 0.021801 -0.131980 0.017931
v 0.000000 -0.131980 -0.032714
v 0.000000 -0.131980 0.032714
v -0.023980 -0.141061 -0.019724
v -0.023980 -0.141061 0.019725
v 0.023981 -0.141061 -0.019724
v 0.023981 -0.141061 0.019725
v 0.000000 -0.141061 -0.035985
v 0.000000 -0.141061 0.035985
v -0.021582 -0.150924 -0.017752
v -0.021582 -0.150924 0.017752
v 0.021583 -0.150924 -0.017752
v 0.021583 -0.150924 0.017752
v 0.000000 -0.150924 -0.032387
v 0.000000 -0.150924 0.032387
v -0.010791 -0.156883 -0.008876
v -0.010791 -0.156883 0.008876
v 0.010791 -0.156883 -0.008876
v 0.010791 -0.156883 0.008876
v 0.000000 -0.156883 -0.016193
v 0.000000 -0.156883 0.016193
v 0.000000 -0.158158 0.000000
vt 0.954705 0.842773
vt 0.976483 0.848560
vt 0.976483 0.910373
vt 0.954705 0.898967
vt 0.954705 0.842772
vt 0.954705 0.727025
vt 0.431428 0.697356
vt 0.431428 0.872442
vt 0.244543 0.835695
vt 0.244543 0.898967
vt 0.431428 0.949156
vt 0.954705 0.670831
vt 0.431428 0.620641
vt 0.244543 0.670831
vt 0.244543 0.734102
vt 0.244543 0.835696
vt 0.976483 0.659424
vt 0.976483 0.721237
vt 0.132412 0.784899
vt 0.095036 0.830526
vt 0.095036 0.739272
vt 0.020282 0.784899
vt 0.360332 0.427689
vt 0.192747 0.427688
vt 0.192747 0.596529
vt 0.360333 0.596529
vt 0.109457 0.457539
vt 0.109457 0.566677
vt 0.443623 0.566678
vt 0.443623 0.457540
vt 0.056987 0.486601
vt 0.056987 0.537615
vt 0.496093 0.537616
vt 0.496092 0.486602
vt 0.137098 0.265718
vt 0.198622 0.182019
vt 0.184722 0.123574
vt 0.113435 0.166218
vt 0.449226 0.332283
vt 0.378055 0.283726
vt 0.332444 0.265945
vt 0.363697 0.314501
vt 0.363697 0.314502
vt 0.378055 0.283727
vt 0.113518 0.166143
vt 0.078467 0.223118
vt 0.092964 0.284076
vt 0.137182 0.265643
vt 0.078384 0.223193
vt 0.092880 0.284151
vt 0.050867 0.268116
vt 0.058092 0.298499
vt 0.050950 0.268041
vt 0.058176 0.298423
vt 0.190682 0.411305
vt 0.190682 0.314501
vt 0.363697 0.411305
vt 0.500936 0.461362
vt 0.491990 0.359531
vt 0.449226 0.429086
vt 0.105153 0.429086
vt 0.105153 0.332283
vt 0.062389 0.359530
vt 0.053443 0.461362
vt 0.449226 0.429087
vt 0.028258 0.493981
vt 0.039114 0.412549
vt 0.515265 0.412550
vt 0.526121 0.493982
vt 0.628783 0.189110
vt 0.981397 0.199960
vt 0.981821 0.133419
vt 0.633038 0.124528
vt 0.335589 0.228579
vt 0.309200 0.228579
vt 0.624212 0.339825
vt 0.980899 0.341603
vt 0.981044 0.276491
vt 0.626145 0.269214
vt 0.221934 0.265945
vt 0.176324 0.283726
vt 0.198705 0.181943
vt 0.184806 0.123499
vt 0.592346 0.167161
vt 0.596722 0.095438
vt 0.581379 0.338996
vt 0.587502 0.272249
vt 0.633912 0.557641
vt 0.981821 0.545608
vt 0.981328 0.480815
vt 0.629819 0.491515
vt 0.245179 0.228579
vt 0.218790 0.228579
vt 0.236385 0.110262
vt 0.596196 0.587522
vt 0.591798 0.513112
vt 0.236468 0.110186
vt 0.587067 0.405457
vt 0.625475 0.410750
vt 0.980971 0.404349
vt 0.525156 0.512109
vt 0.027924 0.512107
vt 0.017351 0.318632
vt 0.515265 0.412549
vt 0.017268 0.318706
vt 0.378984 0.196235
vt 0.373786 0.161149
vt 0.328663 0.154355
vt 0.344208 0.209692
vt 0.450105 0.220618
vt 0.451386 0.170099
vt 0.422449 0.169146
vt 0.414959 0.198161
vt 0.557443 0.219189
vt 0.575834 0.166680
vt 0.530423 0.166867
vt 0.523908 0.198888
vt 0.374669 0.133805
vt 0.328007 0.115130
vt 0.451803 0.149432
vt 0.423568 0.146036
vt 0.578261 0.127024
vt 0.530001 0.139781
vt 0.487227 0.207902
vt 0.481148 0.173979
vt 0.378446 0.105920
vt 0.337106 0.076092
vt 0.452240 0.127590
vt 0.424231 0.120569
vt 0.570764 0.085388
vt 0.526399 0.110743
vt 0.480210 0.149914
vt 0.390046 0.066098
vt 0.368884 0.035256
vt 0.454034 0.065476
vt 0.423954 0.070031
vt 0.540163 0.035256
vt 0.515597 0.063008
vt 0.479602 0.124782
vt 0.483075 0.079823
vt 0.497322 0.309715
vt 0.511182 0.275942
vt 0.485883 0.275942
vt 0.536481 0.275942
vt 0.525043 0.309715
vt 0.497322 0.242169
vt 0.525043 0.242169
vn -0.913047 -0.044415 -0.405429
vn -0.902864 -0.108919 -0.415901
vn -0.912404 -0.049398 -0.406300
vn 0.999602 -0.028212 0.000000
vn 0.999991 -0.004235 0.000000
vn -0.999602 -0.028212 -0.000000
vn -0.999991 -0.004235 -0.000000
vn 0.922700 -0.017084 -0.385139
vn 0.923267 -0.069872 -0.377750
vn 0.923630 -0.066298 -0.377507
vn 0.922562 -0.015549 -0.385536
vn 0.913047 -0.044415 0.405428
vn 0.912404 -0.049398 0.406299
vn 0.922561 -0.015549 0.385537
vn 0.922700 -0.017084 0.385140
vn 0.923630 -0.066298 0.377508
vn 0.923267 -0.069872 0.377751
vn -0.999971 -0.007661 -0.000000
vn 0.999971 -0.007661 0.000000
vn -0.922561 -0.015549 -0.385537
vn -0.923630 -0.066298 -0.377508
vn -0.923267 -0.069872 -0.377751
vn -0.922700 -0.017084 -0.385141
vn -0.922700 -0.017084 0.385139
vn -0.922562 -0.015549 0.385535
vn -0.912404 -0.049398 0.406299
vn -0.913047 -0.044415 0.405428
vn -0.902864 -0.108919 0.415900
vn 0.912405 -0.049398 -0.406298
vn 0.913048 -0.044415 -0.405427
vn 0.902865 -0.108919 -0.415899
vn 0.995238 -0.097475 0.000000
vn 0.927797 -0.101786 -0.358932
vn -0.923268 -0.069872 0.377750
vn -0.923631 -0.066298 0.377507
vn -0.995238 -0.097475 -0.000000
vn -0.927797 -0.101786 0.358932
vn 0.993404 -0.114664 0.000000
vn -1.000000 -0.000000 -0.000000
vn 1.000000 0.000000 0.000000
vn -0.927797 -0.101786 -0.358932
vn 0.927797 -0.101786 0.358933
vn -0.993404 -0.114664 -0.000000
vn 0.902864 -0.108919 0.415900
vn -0.998239 -0.059326 -0.000000
vn 0.998239 -0.059326 0.000000
vn 0.735801 -0.676260 -0.034883
vn 0.735801 -0.676260 0.034883
vn -0.735801 -0.676290 0.034883
vn -0.735801 -0.676290 -0.034883
vn 0.732322 -0.679769 0.039674
vn -0.732322 -0.679800 0.039674
vn -0.732292 -0.679800 -0.039674
vn 0.732322 -0.679769 -0.039674
vn 0.742729 -0.669515 -0.008850
vn -0.742698 -0.669515 -0.008850
vn -0.742698 -0.669515 0.008850
vn 0.742729 -0.669515 0.008850
vn -0.684530 0.638173 -0.352306
vn -0.299936 0.875210 -0.379467
vn 0.299905 0.875210 -0.379467
vn 0.684530 0.638173 -0.352306
vn 0.810053 0.545518 -0.214850
vn 0.916288 0.362560 -0.170049
vn -0.916288 0.362560 -0.170049
vn -0.810053 0.545518 -0.214850
vn -0.684530 0.638173 0.352306
vn -0.590869 0.598804 0.540574
vn 0.590869 0.598804 0.540574
vn 0.684530 0.638173 0.352306
vn 0.590869 0.598804 -0.540574
vn -0.590869 0.598804 -0.540574
vn 0.532670 0.303842 -0.789880
vn -0.532670 0.303812 -0.789880
vn -0.532670 0.303812 0.789880
vn 0.532670 0.303842 0.789880
vn -0.916288 0.362560 0.170049
vn 0.916288 0.362560 0.170049
vn 0.000000 -0.804346 0.594134
vn 0.000000 -0.804346 -0.594104
vn 0.884091 0.095614 0.457381
vn 0.862003 0.000000 0.506904
vn 0.000000 0.000000 1.000000
vn 0.000000 0.185400 0.982635
vn 0.000000 0.729148 -0.684317
vn 0.862758 0.393017 -0.318033
vn 0.000000 0.185400 -0.982635
vn 0.000001 -0.000000 -1.000000
vn 0.862003 -0.000000 -0.506903
vn 0.884091 0.095614 -0.457381
vn 0.810053 0.545518 0.214850
vn 0.299936 0.875210 0.379467
vn -0.299936 0.875210 0.379467
vn -0.810053 0.545518 0.214850
vn 0.862758 0.393017 0.318033
vn 0.000000 0.729179 0.684317
vn -0.862003 0.000000 0.506904
vn -0.884091 0.095614 0.457381
vn -0.862758 0.392987 -0.318033
vn -0.862758 0.393017 0.318033
vn -0.884091 0.095614 -0.457381
vn -0.862002 0.000000 -0.506904
vn 0.588249 -0.779073 0.216817
vn 0.739677 -0.540544 0.400830
vn 0.000000 -0.588275 0.808618
vn 0.000000 -0.870328 0.492472
vn 0.000001 -0.870328 -0.492472
vn 0.000000 -0.588275 -0.808618
vn 0.739677 -0.540544 -0.400830
vn 0.588249 -0.779072 -0.216817
vn -0.739677 -0.540544 0.400830
vn -0.588248 -0.779073 0.216817
vn 0.876003 0.001648 0.482223
vn 0.000000 0.001831 0.999969
vn 0.000000 0.001831 -0.999969
vn 0.876003 0.001648 -0.482223
vn -0.876003 0.001648 0.482223
vn -0.588248 -0.779073 -0.216817
vn -0.739677 -0.540544 -0.400830
vn 0.702292 0.610401 0.366283
vn 0.000000 0.637257 0.770623
vn 0.000000 0.637257 -0.770623
vn 0.702292 0.610401 -0.366283
vn -0.702292 0.610401 0.366283
vn -0.876003 0.001648 -0.482223
vn 0.273782 0.954375 0.118931
vn 0.000000 0.965056 0.261971
vn 0.000000 0.965056 -0.261971
vn 0.273782 0.954375 -0.118931
vn -0.273782 0.954375 0.118931
vn -0.702292 0.610401 -0.366283
vn -0.273782 0.954375 -0.118931
vn 0.000000 1.000000 0.000000
usemtl sword.material
s 1
f 4/1/1 27/2/2 29/3/2 11/4/3
f 1/5/4 2/6/4 6/7/5 5/8/5
f 3/6/6 4/1/6 8/8/7 7/7/7
f 5/8/8 13/9/9 18/10/10 12/11/11
f 2/6/12 9/12/13 10/13/14 6/7/15
f 10/13/14 17/14/16 14/15/17 6/7/15
f 8/8/7 16/16/18 15/15/18 7/7/7
f 6/7/5 14/15/19 13/9/19 5/8/5
f 12/11/20 18/10/21 16/16/22 8/8/23
f 7/7/24 10/13/25 9/12/26 3/6/27
f 9/12/26 28/17/28 26/18/28 3/6/27
f 4/1/1 11/4/3 12/11/20 8/8/23
f 5/8/8 12/11/11 11/4/29 1/5/30
f 11/4/29 29/3/31 24/2/31 1/5/30
f 13/9/9 19/19/32 22/20/33 18/10/10
f 7/7/24 15/15/34 17/14/35 10/13/25
f 15/15/34 20/19/36 21/21/37 17/14/35
f 19/19/32 23/22/38 22/20/33
f 16/16/18 20/19/39 15/15/18
f 14/15/19 19/19/40 13/9/19
f 18/10/21 22/20/41 20/19/36 16/16/22
f 17/14/16 21/21/42 19/19/32 14/15/17
f 22/20/41 23/22/43 20/19/36
f 21/21/42 23/22/38 19/19/32
f 21/21/37 20/19/36 23/22/43
f 2/6/12 25/18/44 28/17/44 9/12/13
f 3/6/6 26/18/45 27/2/45 4/1/6
f 1/5/4 24/2/46 25/18/46 2/6/4
f 30/23/47 31/24/48 32/25/49 33/26/50
f 32/25/49 31/24/48 34/27/51 35/28/52
f 30/23/47 33/26/50 37/29/53 36/30/54
f 35/28/52 34/27/51 38/31/55 39/32/56
f 36/30/54 37/29/53 41/33/57 40/34/58
f 51/35/59 67/36/60 66/37/61 50/38/62
f 50/39/62 66/40/61 60/41/63 44/42/64
f 47/43/65 63/41/66 67/44/60 51/39/59
f 49/45/67 53/46/68 52/47/69 48/48/70
f 50/38/62 54/49/71 55/50/72 51/35/59
f 54/49/71 56/51/73 57/52/74 55/50/72
f 53/46/68 59/53/75 58/54/76 52/47/69
f 32/55/49 46/56/77 47/43/65 33/57/50
f 40/58/58 54/59/71 50/39/62 36/60/54
f 34/61/51 48/62/70 52/63/69 38/64/55
f 36/60/54 50/39/62 44/42/64 30/57/47
f 31/55/48 45/56/78 48/62/70 34/61/51
f 37/65/53 51/39/59 55/59/72 41/58/57
f 30/57/47 44/42/64 45/56/78 31/55/48
f 39/64/56 53/63/68 49/62/67 35/61/52
f 33/57/50 47/43/65 51/39/59 37/65/53
f 43/66/79 59/67/75 53/63/68 39/64/56
f 41/58/57 55/59/72 57/68/74 42/69/80
f 35/61/52 49/62/67 46/56/77 32/55/49
f 73/70/81 80/71/82 84/72/83 78/73/84
f 66/40/61 74/74/85 68/75/86 60/41/63
f 79/76/87 85/77/88 81/78/89 75/79/90
f 45/56/78 61/80/91 64/81/92 48/62/70
f 49/62/67 65/81/93 62/80/94 46/56/77
f 48/48/70 64/82/92 65/83/93 49/45/67
f 46/56/77 62/80/94 63/41/66 47/43/65
f 44/42/64 60/41/63 61/80/91 45/56/78
f 69/84/95 73/70/81 78/73/84 72/85/96
f 74/86/85 79/76/87 75/79/90 68/87/86
f 78/88/84 84/89/83 82/90/97 76/91/98
f 61/80/91 69/92/95 72/93/96 64/81/92
f 63/41/66 71/75/99 74/74/85 67/44/60
f 67/36/60 74/94/85 66/37/61
f 62/80/94 70/92/100 71/75/99 63/41/66
f 60/41/63 68/75/86 69/92/95 61/80/91
f 72/95/96 78/88/84 76/91/98 70/96/100
f 65/81/93 72/93/96 70/92/100 62/80/94
f 64/82/92 72/97/96 65/83/93
f 71/98/99 77/99/101 79/76/87 74/86/85
f 70/96/100 76/91/98 77/99/101 71/98/99
f 68/87/86 75/79/90 73/70/81 69/84/95
f 77/99/101 83/100/102 85/77/88 79/76/87
f 75/79/90 81/78/89 80/71/82 73/70/81
f 76/91/98 82/90/97 83/100/102 77/99/101
f 40/34/58 41/33/57 42/101/80
f 39/32/56 38/31/55 43/102/79
f 38/64/55 52/63/69 58/67/76 43/66/79
f 43/103/79 58/54/76 59/53/75
f 42/69/80 56/104/73 54/59/71 40/58/58
f 42/105/80 57/52/74 56/51/73
f 86/106/103 92/107/104 96/108/105 90/109/106
f 91/110/107 97/111/108 93/112/109 87/113/110
f 90/114/106 96/115/105 94/116/111 88/117/112
f 92/107/104 98/118/113 102/119/114 96/108/105
f 97/111/108 103/120/115 99/121/116 93/112/109
f 96/115/105 102/122/114 100/123/117 94/116/111
f 89/124/118 95/125/119 97/111/108 91/110/107
f 87/113/110 93/112/109 92/107/104 86/106/103
f 88/117/112 94/116/111 95/125/119 89/124/118
f 98/118/113 104/126/120 108/127/121 102/119/114
f 103/120/115 109/128/122 105/129/123 99/121/116
f 102/122/114 108/130/121 106/131/124 100/123/117
f 95/125/119 101/132/125 103/120/115 97/111/108
f 93/112/109 99/121/116 98/118/113 92/107/104
f 94/116/111 100/123/117 101/132/125 95/125/119
f 104/126/120 110/133/126 114/134/127 108/127/121
f 109/128/122 115/135/128 111/136/129 105/129/123
f 108/130/121 114/137/127 112/138/130 106/131/124
f 101/132/125 107/139/131 109/128/122 103/120/115
f 99/121/116 105/129/123 104/126/120 98/118/113
f 100/123/117 106/131/124 107/139/131 101/132/125
f 107/139/131 113/140/132 115/135/128 109/128/122
f 105/129/123 111/136/129 110/133/126 104/126/120
f 106/131/124 112/138/130 113/140/132 107/139/131
f 110/141/126 116/142/133 114/143/127
f 115/144/128 116/142/133 111/145/129
f 114/143/127 116/142/133 112/146/130
f 113/147/132 116/142/133 115/144/128
f 111/145/129 116/142/133 110/141/126
f 112/146/130 116/142/133 113/147/132
